<?xml version="1.0" encoding="utf-8"?>
<!-- Generator: Adobe Illustrator 26.2.1, SVG Export Plug-In . SVG Version: 6.00 Build 0)  -->
<svg version="1.1" id="레이어_1" xmlns="http://www.w3.org/2000/svg" xmlns:xlink="http://www.w3.org/1999/xlink" x="0px"
	 y="0px" viewBox="0 0 1366 768" style="enable-background:new 0 0 1366 768;" xml:space="preserve">
<style type="text/css">
	.st0{fill:#F2F2F2;stroke:#0B0B0B;stroke-width:28.6827;stroke-miterlimit:10;}
	.st1{fill:#0B0B0B;}
	.st2{font-family:'NanumSquare_acEB';}
	.st3{font-size:221.9376px;}
</style>
<g>
	<path class="st0" d="M1270.77,637H95.23c-35.47,0-64.5-29.03-64.5-64.5v-377c0-35.48,29.02-64.5,64.5-64.5h1175.53
		c35.47,0,64.5,29.02,64.5,64.5v377C1335.27,607.97,1306.24,637,1270.77,637z"/>
	<path class="st1" d="M314.54,342.88c-1.15,0.89-21.39,12.3-21.39,37.66c0,29.34,25.76,39.71,26.53,39.97
		c-0.12,0.63-4.09,14.21-13.58,28.05c-8.46,12.18-17.3,24.34-30.74,24.34c-13.44,0-16.9-7.81-32.42-7.81
		c-15.12,0-20.5,8.07-32.8,8.07c-12.3,0-20.88-11.27-30.74-25.11c-11.43-16.25-20.66-41.49-20.66-65.45
		c0-38.43,24.99-58.81,49.58-58.81c13.07,0,23.96,8.58,32.16,8.58c7.81,0,19.99-9.09,34.85-9.09
		C280.97,323.27,301.22,323.79,314.54,342.88L314.54,342.88z M268.28,307c6.15-7.29,10.5-17.42,10.5-27.54
		c0-1.4-0.12-2.83-0.38-3.97c-10,0.38-21.9,6.66-29.08,14.98c-5.63,6.4-10.89,16.53-10.89,26.79c0,1.54,0.26,3.08,0.38,3.58
		c0.63,0.12,1.66,0.26,2.69,0.26C250.47,321.1,261.76,315.09,268.28,307L268.28,307z"/>
	<text transform="matrix(1 0 0 1 386.1689 455.9121)" class="st2 st3">PayMap</text>
</g>
</svg>
